<?xml version="1.0" encoding="utf-8"?>
<!-- Generator: Adobe Illustrator 24.0.0, SVG Export Plug-In . SVG Version: 6.00 Build 0)  -->
<svg version="1.1" id="bicycle" xmlns="http://www.w3.org/2000/svg" xmlns:xlink="http://www.w3.org/1999/xlink" x="0px" y="0px"
	 viewBox="0 0 15 14" style="enable-background:new 0 0 15 14;" xml:space="preserve">
<style type="text/css">
	.st0{fill:#2B4794;}
</style>
<title>abrisavelos</title>
<path id="path4668" class="st0" d="M7.5,3C7.2,3,7,3.2,7,3.5C7,3.8,7.2,4,7.5,4H9v1.3L6.2,7.6L5.2,5h0.3C5.8,5,6,4.8,6,4.5
	C6,4.2,5.8,4,5.5,4h-2C3.2,4,3,4.2,3,4.5C3,4.8,3.2,5,3.5,5h0.7L5,7.4C4.6,7.1,4,7,3.5,7C1.6,7,0,8.6,0,10.5S1.6,14,3.5,14
	S7,12.4,7,10.5c0-0.6-0.2-1.3-0.5-1.8l2.8-2.3l0.5,1.2c-1.6,1-2.2,3.1-1.2,4.8s3.1,2.2,4.8,1.2s2.2-3.1,1.2-4.8
	c-0.6-1.1-1.8-1.7-3-1.7c-0.3,0-0.6,0-0.8,0.1L10,5.4V3.5C10,3.2,9.8,3,9.5,3L7.5,3z M3.5,8c0.6,0,1.1,0.2,1.6,0.6l-1.9,1.6
	c-0.2,0.2-0.2,0.5-0.1,0.7c0.2,0.2,0.5,0.2,0.7,0.1l1.9-1.6c0.6,1.2,0.2,2.7-1,3.4c-1.2,0.6-2.7,0.2-3.4-1s-0.2-2.7,1-3.4
	C2.7,8.1,3.1,8,3.5,8z M11.5,8c1.4,0,2.5,1.1,2.5,2.5S12.9,13,11.5,13C10.1,13,9,11.9,9,10.5c0-0.8,0.4-1.6,1.1-2.1l0.9,2.3
	c0.1,0.3,0.4,0.4,0.7,0.3s0.4-0.4,0.3-0.7l-0.9-2.3C11.2,8,11.4,8,11.5,8z"/>
<path class="st0" d="M15,4c0.1-0.3,0-0.6-0.3-0.7L7.5,0L0.3,3.3C0,3.5-0.1,3.8,0.1,4c0.1,0.3,0.4,0.4,0.7,0.3l0,0l6.8-3.1l6.8,3.1
	C14.5,4.4,14.8,4.3,15,4C14.9,4.1,14.9,4.1,15,4L15,4z"/>
</svg>
