<svg id="Calque_1" data-name="Calque 1" xmlns="http://www.w3.org/2000/svg" width="15" height="15.0111" viewBox="0 0 15 15.0111"><defs><style>.cls-1{fill:#2b4894;}</style></defs><title>bus</title><path class="cls-1" d="M14.9683,6.8993A6.7687,6.7687,0,0,0,14.68,5.3471,7.4437,7.4437,0,0,0,10.778.7593,7.1555,7.1555,0,0,0,8.6468.0907a7.4883,7.4883,0,0,0-5.712,1.4544A7.4125,7.4125,0,0,0,.177,5.8355,5.8649,5.8649,0,0,0,.01,7.0461c-.0078.3422-.0209.6866.0055,1.0271A7.3631,7.3631,0,0,0,1.3,11.732a7.4466,7.4466,0,0,0,3.2582,2.6767,6.69,6.69,0,0,0,1.7277.4948c.3.0417.6023.0617.9037.092.0261.0028.0519.01.0781.0156h.4409a.8629.8629,0,0,1,.1-.0164,7.3466,7.3466,0,0,0,3.58-1.0847,7.4389,7.4389,0,0,0,2.9243-3.2863,6.901,6.901,0,0,0,.5793-1.915c.0429-.2947.0618-.5927.0921-.889.0027-.0286.0105-.057.0158-.0856v-.47C14.9894,7.1423,14.9769,7.0211,14.9683,6.8993Zm-9.71,2.4165a.249.249,0,0,1-.1123.2124,2.4875,2.4875,0,0,1-.9952.4467A2.436,2.436,0,0,1,2.306,9.5818a1.0062,1.0062,0,0,1-.11-.0848.23.23,0,0,1-.0776-.1829c.0011-.35.0006-.7.0006-1.0507q0-1.9844-.002-3.9688a.1283.1283,0,0,1,.087-.1384.8428.8428,0,0,1,.7828.0161.12.12,0,0,1,.0712.1215c-.0031.4384-.0017.877-.0017,1.3154V5.704c.0934-.0178.1738-.035.2546-.0484a2.3809,2.3809,0,0,1,1.8586.47.2082.2082,0,0,1,.089.1765Q5.2582,7.809,5.2579,9.3158Zm3.6649.2552a2.31,2.31,0,0,1-.76.37A2.4232,2.4232,0,0,1,6.267,9.6438c-.0523-.0317-.1037-.065-.1543-.0992A.2786.2786,0,0,1,5.98,9.2919c.0039-.5729.0016-1.1461.0016-1.7193,0-.5807.0012-1.1611-.0013-1.7418a.109.109,0,0,1,.0725-.1168.8467.8467,0,0,1,.7895.0072.13.13,0,0,1,.0786.1318c-.0025.99-.0011,1.9792-.0027,2.9688a.1032.1032,0,0,0,.0733.114,1.2869,1.2869,0,0,0,1.0933-.0086.11.11,0,0,0,.0762-.1151c-.0022-.99-.0008-1.9792-.0031-2.9688A.1233.1233,0,0,1,8.2406,5.71a.8059.8059,0,0,1,.817.0406.12.12,0,0,1,.0373.0625.1954.1954,0,0,1,.0014.0584c0,1.1144-.0025,2.2291.0025,3.3435A.38.38,0,0,1,8.9228,9.571Zm3.9487-.3066a.3244.3244,0,0,1-.1657.2977,2.8181,2.8181,0,0,1-.7947.3694A2.24,2.24,0,0,1,10,9.5849.6831.6831,0,0,1,9.8835,9.51a.2828.2828,0,0,1-.0887-.1412c-.0114-.1507-.0042-.303-.0042-.4548H9.7823c0-.1248.0022-.25-.0008-.3747a.1111.1111,0,0,1,.0639-.1117.7556.7556,0,0,1,.8317.0275.1007.1007,0,0,1,.0306.0745c.0031.137.0031.2741.0008.4114a.0812.0812,0,0,0,.0551.09,1.3866,1.3866,0,0,0,1.0916.0086c.0528-.0211.0642-.0536.0728-.109a.3015.3015,0,0,0-.1837-.3338c-.6288-.3839-1.25-.7811-1.8744-1.1709a.162.162,0,0,1-.0893-.1579c.0045-.3085.0028-.6174.0014-.9259a.3046.3046,0,0,1,.1407-.2827,2.3765,2.3765,0,0,1,1.5014-.4559,2.4216,2.4216,0,0,1,1.2767.4478.3114.3114,0,0,1,.1476.3c-.0069.2029-.0027.4064-.0011.61a.5169.5169,0,0,0,.0181.114.0732.0732,0,0,1-.0425.0953.8581.8581,0,0,1-.8487-.0025.1074.1074,0,0,1-.047-.0778c-.005-.137-.005-.2744-.0011-.4114a.0905.0905,0,0,0-.0648-.0987,1.3843,1.3843,0,0,0-1.1047-.0033c-.0205.0083-.0322.04-.0467.0622-.0033.0053.0006.0148-.0008.0217a.2966.2966,0,0,0,.176.3378c.6268.3864,1.2431.7908,1.868,1.1806a.2146.2146,0,0,1,.12.2184C12.8657,8.6862,12.8682,8.9755,12.8715,9.2644Z"/><path class="cls-1" d="M3.0394,7.7667c0-.35.0007-.7-.001-1.05A.0867.0867,0,0,1,3.0949,6.62a1.3158,1.3158,0,0,1,1.081-.0049.0976.0976,0,0,1,.0658.1063q-.0019,1.05,0,2.1a.0967.0967,0,0,1-.0624.1011,1.1444,1.1444,0,0,1-1.097-.018.0759.0759,0,0,1-.0435-.081Q3.04,8.2954,3.0394,7.7667Z"/></svg>