<svg id="restaurant" xmlns="http://www.w3.org/2000/svg" width="9.5079" height="15" viewBox="0 0 9.5079 15"><defs><style>.cls-1{fill:#e03c31;}</style></defs><title>cafetarias</title><path id="path11774" class="cls-1" d="M1.0079,0l-1,5.5c-.1464.805,1.7815,1.181,1.75,2l-.25,6.5a.9625.9625,0,0,0,1,1,.9625.9625,0,0,0,1-1l-.25-6.5c-.0314-.8176,1.7334-1.1808,1.75-2l-1-5.5h-.5l.25,4-.75.5L2.7579,0h-.5l-.25,4.5-.75-.5.25-4Zm8.5,0A3.2034,3.2034,0,0,0,7.0528,1.6367,8.8034,8.8034,0,0,0,6.5079,5V7.5c0,.8182,1.0909,1,1.5,1l-.5,5.5c-.0905.9959,1,1,1,1a.9794.9794,0,0,0,1-1Z"/></svg>