<?xml version="1.0" encoding="utf-8"?>
<!-- Generator: Adobe Illustrator 24.0.0, SVG Export Plug-In . SVG Version: 6.00 Build 0)  -->
<svg version="1.1" id="waste-basket" xmlns="http://www.w3.org/2000/svg" xmlns:xlink="http://www.w3.org/1999/xlink" x="0px"
	 y="0px" viewBox="0 0 12.7 15" style="enable-background:new 0 0 12.7 15;" xml:space="preserve">
<style type="text/css">
	.st0{fill:#DDA35E;}
</style>
<title>conteneurspoubelles</title>
<path class="st0" d="M12,5.3l-1.5,9.2c-0.1,0.3-0.3,0.5-0.6,0.5H2.8c-0.3,0-0.5-0.2-0.6-0.5L0.7,5.3C0.6,5,0.8,4.7,1.2,4.6
	c0,0,0.1,0,0.1,0h10.2C11.8,4.6,12,4.9,12,5.3C12,5.2,12,5.3,12,5.3z M12.7,2.9c0,0.3-0.3,0.6-0.6,0.6H0.6C0.3,3.5,0,3.2,0,2.9
	s0.3-0.6,0.6-0.6c0,0,0,0,0,0h2.9V0.6C3.5,0.3,3.7,0,4,0c0,0,0,0,0,0h4.6C9,0,9.2,0.3,9.2,0.6v1.7h2.9C12.4,2.3,12.7,2.6,12.7,2.9z
	 M8.1,2.3V1.2H4.6v1.2H8.1z"/>
</svg>
