<?xml version="1.0" encoding="utf-8"?>
<!-- Generator: Adobe Illustrator 24.0.0, SVG Export Plug-In . SVG Version: 6.00 Build 0)  -->
<svg version="1.1" id="Calque_1" xmlns="http://www.w3.org/2000/svg" xmlns:xlink="http://www.w3.org/1999/xlink" x="0px" y="0px"
	 viewBox="0 0 15.6 15" style="enable-background:new 0 0 15.6 15;" xml:space="preserve">
<style type="text/css">
	.st0{fill:#DDA35E;}
</style>
<title>copieurs</title>
<path class="st0" d="M13,11.6c0,0.8,0,1.4,0,2c0,0.9-0.4,1.3-1.3,1.3c-2.6,0-5.2,0-7.8,0c-0.9,0-1.3-0.4-1.3-1.3c0-0.6,0-1.2,0-1.8
	c0-0.1,0-0.1-0.1-0.2c-0.3,0-0.7,0-1.1,0c-1,0-1.3-0.4-1.4-1.3c0-1.8,0-3.7,0-5.5c0-1.1,0.4-1.4,1.4-1.4c0.3,0,0.7,0,1.2,0
	c0-0.7,0-1.3,0-1.9C2.6,0.4,2.9,0,4,0c2.5,0,5.1,0,7.6,0c1,0,1.3,0.4,1.3,1.3c0,0.6,0,1.3,0,2c0.5,0,0.9,0,1.4,0
	c0.6-0.1,1.2,0.4,1.3,1c0,0.1,0,0.2,0,0.3c0,1.8,0,3.7,0,5.5c0,1.1-0.4,1.5-1.5,1.5C13.8,11.6,13.5,11.6,13,11.6z M11.9,7.7H3.7v6.1
	h8.1L11.9,7.7z M11.8,1.2H3.8v2.2h8.1V1.2z"/>
<path class="st0" d="M5.8,9.1h4c0.4,0,0.6,0.3,0.6,0.6v0c0,0.4-0.3,0.6-0.6,0.6h-4c-0.4,0-0.6-0.3-0.6-0.6v0
	C5.2,9.4,5.5,9.1,5.8,9.1z"/>
<path class="st0" d="M5.8,11.1h4c0.4,0,0.6,0.3,0.6,0.6v0c0,0.4-0.3,0.6-0.6,0.6h-4c-0.4,0-0.6-0.3-0.6-0.6v0
	C5.2,11.4,5.5,11.1,5.8,11.1z"/>
</svg>
