<svg id="Calque_1" data-name="Calque 1" xmlns="http://www.w3.org/2000/svg" width="15" height="14.3474" viewBox="0 0 15 14.3474"><defs><style>.cls-1{fill:#1d1d1b;}</style></defs><title>evenements</title><path class="cls-1" d="M11.6192,14.3473a.8366.8366,0,0,1-.39-.0968L7.5237,12.3022a.0511.0511,0,0,0-.0475,0L3.77,14.2505A.8356.8356,0,0,1,2.558,13.37l.7078-4.1265a.0513.0513,0,0,0-.0147-.0452L.253,6.2755A.8356.8356,0,0,1,.7161,4.85l4.1432-.602A.0511.0511,0,0,0,4.8977,4.22L6.7507.4658a.8356.8356,0,0,1,1.4986,0L10.1022,4.22a.0513.0513,0,0,0,.0385.028l4.1432.602a.8356.8356,0,0,1,.4631,1.4253L11.7489,9.1979a.0513.0513,0,0,0-.0147.0452L12.442,13.37a.8371.8371,0,0,1-.8228.9777ZM7.5,11.5117a.8356.8356,0,0,1,.3889.0961l3.7058,1.9483a.051.051,0,0,0,.074-.0538L10.961,9.3757a.8355.8355,0,0,1,.24-.74l2.9981-2.9224a.0511.0511,0,0,0-.0283-.0871l-4.1432-.602a.8358.8358,0,0,1-.6292-.4571L7.5458.813a.051.051,0,0,0-.0915,0L5.6013,4.5675a.8356.8356,0,0,1-.6291.4571l-4.1433.602a.0511.0511,0,0,0-.0283.0871L3.7987,8.6361a.8354.8354,0,0,1,.24.74l-.7078,4.1265a.0511.0511,0,0,0,.0741.0539l3.7059-1.9483A.8352.8352,0,0,1,7.5,11.5117Z"/></svg>