<?xml version="1.0" encoding="utf-8"?>
<!-- Generator: Adobe Illustrator 24.0.0, SVG Export Plug-In . SVG Version: 6.00 Build 0)  -->
<svg version="1.1" id="Calque_1" xmlns="http://www.w3.org/2000/svg" xmlns:xlink="http://www.w3.org/1999/xlink" x="0px" y="0px"
	 viewBox="0 0 15 11.9" style="enable-background:new 0 0 15 11.9;" xml:space="preserve">
<style type="text/css">
	.st0{fill:#E03C31;}
</style>
<title>foodtruck</title>
<path class="st0" d="M2.6,11.9c-0.8,0-1.4-0.6-1.4-1.4h2.7C3.9,11.2,3.3,11.9,2.6,11.9z M10.3,10L10.3,10H1.4C0.6,10,0,9.4,0,8.7
	V1.3C0,0.6,0.6,0,1.4,0h7.5c0.8,0,1.4,0.6,1.4,1.3l0,0v7.4V10z M12.6,11.9c-0.8,0-1.4-0.6-1.4-1.4h2.7
	C13.9,11.2,13.3,11.9,12.6,11.9z M15,10h-4.1V3.7h2.7C14.4,3.7,15,4.3,15,5l0,0V10z M2.5,0.4L1.9,3.8C1.8,4.3,3,4.5,3,5.1l-0.2,4
	c0,0.3,0.2,0.6,0.6,0.6l0,0C3.7,9.7,4,9.5,4,9.1l0,0l-0.1-4C3.9,4.5,5,4.3,5,3.8L4.4,0.4H4.1l0.2,2.5L3.7,3.2L3.6,0.4H3.3L3.1,3.2
	L2.7,2.9l0.2-2.5C2.9,0.4,2.5,0.4,2.5,0.4z M7.8,0.4c-0.6,0.1-1.2,0.5-1.5,1C6,2.1,5.9,2.8,5.9,3.5v1.6c0,0.5,0.7,0.6,0.9,0.6
	L6.6,9.1C6.5,9.7,7.2,9.7,7.2,9.7c0.3,0,0.6-0.3,0.6-0.6l0,0C7.8,9.1,7.8,0.4,7.8,0.4z"/>
</svg>
