<svg id="school" xmlns="http://www.w3.org/2000/svg" width="12.6923" height="15" viewBox="0 0 12.6923 15"><defs><style>.cls-1{fill:#fabc2a;}</style></defs><title>impressionetstudiographique</title><path class="cls-1" d="M10.3846,13.8462V12.6923h2.3077V11.5385H8.6538V10.3846h4.0385V9.2308H10.3846V8.0769h2.3077V6.9231H10.3846V5.7692h2.3077V4.6154H8.6538V3.4615h4.0385V2.3077H10.3846V1.1538h2.3077V0H7.4144a.4913.4913,0,0,0-.4913.4913V14.5087A.4913.4913,0,0,0,7.4144,15h5.2779V13.8462Zm-6.26-2.3077H.4913A.4913.4913,0,0,1,0,11.0472V.4913A.4913.4913,0,0,1,.4913,0H4.1241a.4913.4913,0,0,1,.4913.4913V11.0472A.4913.4913,0,0,1,4.1241,11.5385ZM4.21,13.0977,2.6551,14.6526a.4912.4912,0,0,1-.6948,0L.4053,13.0977a.2375.2375,0,0,1,.1679-.4054H4.0421A.2375.2375,0,0,1,4.21,13.0977Z"/></svg>