<?xml version="1.0" encoding="utf-8"?>
<!-- Generator: Adobe Illustrator 24.0.0, SVG Export Plug-In . SVG Version: 6.00 Build 0)  -->
<svg version="1.1" id="cafe" xmlns="http://www.w3.org/2000/svg" xmlns:xlink="http://www.w3.org/1999/xlink" x="0px" y="0px"
	 viewBox="0 0 13 12.5" style="enable-background:new 0 0 13 12.5;" xml:space="preserve">
<style type="text/css">
	.st0{fill:#E03C31;}
</style>
<title>machinesacafe</title>
<path class="st0" d="M10.5,2.5H10V0H0v5c0,2.8,2.3,5,5,5C6.8,10,8.4,9,9.3,7.5h1.2C11.9,7.5,13,6.4,13,5S11.9,2.5,10.5,2.5z
	 M10.5,6.3H9.8C9.9,5.8,10,5.4,10,5V3.8h0.5c0.7,0,1.3,0.6,1.3,1.3S11.2,6.3,10.5,6.3z M10,11.9c0,0.3-0.3,0.6-0.6,0.6H0.6
	c-0.3,0-0.6-0.3-0.6-0.6s0.3-0.6,0.6-0.6h8.8C9.7,11.3,10,11.5,10,11.9z"/>
</svg>
