<svg id="svg5082" xmlns="http://www.w3.org/2000/svg" width="15" height="15" viewBox="0 0 15 15"><defs><style>.cls-1{fill:#2b4794;}</style></defs><title>metros</title><g id="layer1"><path id="path4138" class="cls-1" d="M12.69,4.1345v7.2293c0,.2738-.403.4215-.8.4215-.403,0-.8091-.1477-.8091-.4215V5.0051A3.336,3.336,0,0,0,8.3,4.999v6.3648c0,.2738-.403.4215-.8.4215-.403,0-.8091-.1477-.8091-.4215V5.0051A3.3207,3.3207,0,0,0,3.9161,4.999v6.3648c0,.2738-.4061.4215-.8029.4215-.4,0-.806-.1477-.806-.4215V4.0484l.0769-.04a5.7977,5.7977,0,0,1,5.1344-.3507,5.8128,5.8128,0,0,1,5.1066.3569l.0646.0461v.0738ZM7.5,0A7.5,7.5,0,1,0,15,7.5031,7.5005,7.5005,0,0,0,7.5,0"/></g></svg>