<svg id="parking" xmlns="http://www.w3.org/2000/svg" width="11.5712" height="15.015" viewBox="0 0 11.5712 15.015"><defs><style>.cls-1{fill:#2b4794;}.cls-2{fill:#fff;}</style></defs><title>parcsrelais</title><path class="cls-1" d="M11.5,4.7956a4.3916,4.3916,0,0,0-1.3-3.6,4.7952,4.7952,0,0,0-3.6-1.2H0v15H3.2v-5.3H4.97a4.0124,4.0124,0,0,1,3.45-1.98,3.7944,3.7944,0,0,1,1.99.55A4.3286,4.3286,0,0,0,11.5,4.7956Zm-3.7,1.7a3.3711,3.3711,0,0,1-1.7.5H3.2v-4.4H6.1a3.3711,3.3711,0,0,1,1.7.5,2.7083,2.7083,0,0,1,0,3.4Z" transform="translate(0 0.0194)"/><circle class="cls-1" cx="8.4231" cy="11.8669" r="3.1481"/><path class="cls-2" d="M9.937,11.1144a1.1512,1.1512,0,0,1-.9083,1.2111l1.06,1.3625h-.757l-1.06-1.3625H7.5148V13.688h-.757V9.7519H8.12a1.6309,1.6309,0,0,1,1.2111.3028A1.1428,1.1428,0,0,1,9.937,11.1144Zm-.9083.4542c.1513-.1514.1513-.3028.1513-.6056,0-.1514,0-.4541-.1513-.4541a1.3649,1.3649,0,0,0-.757-.1514H7.5148V11.72h.7569A1.3649,1.3649,0,0,0,9.0287,11.5686Z" transform="translate(0 0.0194)"/></svg>