<svg id="parking" xmlns="http://www.w3.org/2000/svg" width="11.5451" height="15.0194" viewBox="0 0 11.5451 15.0194"><defs><style>.cls-1{fill:#2b4794;}.cls-2{fill:#2b4894;}</style></defs><title>parkingspmr</title><path class="cls-1" d="M11.5,4.7956a4.3916,4.3916,0,0,0-1.3-3.6,4.7952,4.7952,0,0,0-3.6-1.2H0v15H3.2v-5.3H4.97a4.0124,4.0124,0,0,1,3.45-1.98,3.7944,3.7944,0,0,1,1.99.55A4.3286,4.3286,0,0,0,11.5,4.7956Zm-3.7,1.7a3.3711,3.3711,0,0,1-1.7.5H3.2v-4.4H6.1a3.3711,3.3711,0,0,1,1.7.5,2.7083,2.7083,0,0,1,0,3.4Z" transform="translate(0 0.0194)"/><path class="cls-2" d="M10.5508,9.0959a.656.656,0,1,1-.656-.656.656.656,0,0,1,.656.656ZM6.5361,10.57l.7609-.7478.8091.5642-.3236.5466a2.4022,2.4022,0,0,1,1.1852.8222l.3848-.656a.3759.3759,0,0,0-.1473-.5109h0l-.0007-.0009-.2711-.1618L7.3976,9.3583a.2187.2187,0,0,0-.28.0219l-.8747.8747a.2187.2187,0,0,0,.2931.3148Zm2.3222,2.6545a1.7971,1.7971,0,0,1-.6735,1.382A1.75,1.75,0,0,1,7.0827,15a1.78,1.78,0,0,1-1.78-1.7756,1.75,1.75,0,0,1,.398-1.1065,1.8267,1.8267,0,0,1,.2756-.2755,1.7489,1.7489,0,0,1,1.1064-.398A1.78,1.78,0,0,1,8.8583,13.2244Zm-.9315.5554A1.0015,1.0015,0,0,0,6.5229,12.376a.7536.7536,0,0,0-.2755.2755,1.0015,1.0015,0,0,0,1.3869,1.3863,1.3622,1.3622,0,0,0,.2925-.2579Zm3.5862.4374-1.0887-2.1867a.328.328,0,0,0-.31-.2012h-1.09a2.39,2.39,0,0,1,.3324.656h.5511l1.0015,2.003a.33.33,0,1,0,.59-.293Z" transform="translate(0 0.0194)"/></svg>