<?xml version="1.0" encoding="utf-8"?>
<!-- Generator: Adobe Illustrator 24.0.0, SVG Export Plug-In . SVG Version: 6.00 Build 0)  -->
<svg version="1.1" id="bicycle" xmlns="http://www.w3.org/2000/svg" xmlns:xlink="http://www.w3.org/1999/xlink" x="0px" y="0px"
	 viewBox="0 0 15 11" style="enable-background:new 0 0 15 11;" xml:space="preserve">
<style type="text/css">
	.st0{fill:#2B4794;}
</style>
<title>parkingsavelos</title>
<path id="path4668" class="st0" d="M7.5,0C7.2,0,7,0.2,7,0.5S7.2,1,7.5,1H9v1.3L6.2,4.6L5.2,2h0.3C5.8,2,6,1.8,6,1.5S5.8,1,5.5,1h-2
	C3.2,1,3,1.2,3,1.5S3.2,2,3.5,2h0.7L5,4.4C4.6,4.1,4,4,3.5,4C1.6,4,0,5.6,0,7.5S1.6,11,3.5,11S7,9.4,7,7.5c0-0.6-0.2-1.3-0.5-1.8
	l2.8-2.3l0.5,1.2c-1.6,1-2.2,3.1-1.2,4.8s3.1,2.2,4.8,1.2s2.2-3.1,1.2-4.8c-0.6-1.1-1.8-1.7-3-1.7c-0.3,0-0.6,0-0.8,0.1L10,2.4V0.5
	C10,0.2,9.8,0,9.5,0H7.5z M3.5,5c0.6,0,1.1,0.2,1.6,0.6L3.2,7.1C3,7.3,2.9,7.6,3.1,7.8C3.3,8,3.6,8.1,3.8,7.9l0,0l1.9-1.6
	c0.6,1.2,0.2,2.7-1,3.4s-2.7,0.2-3.4-1s-0.2-2.7,1-3.4C2.7,5.1,3.1,5,3.5,5z M11.5,5C12.9,5,14,6.1,14,7.5S12.9,10,11.5,10
	S9,8.9,9,7.5c0-0.8,0.4-1.6,1.1-2.1L11,7.7c0.1,0.3,0.4,0.4,0.7,0.3c0.3-0.1,0.4-0.4,0.3-0.7L11.1,5C11.2,5,11.4,5,11.5,5z"/>
</svg>
