<svg id="svg8" xmlns="http://www.w3.org/2000/svg" width="14.9664" height="14.9151" viewBox="0 0 14.9664 14.9151"><defs><style>.cls-1{fill:#e03c31;}</style></defs><title>restaurantsuniversitaires</title><g id="layer1"><g id="g1081"><path id="path1083" class="cls-1" d="M6.4572,14.9044A7.4791,7.4791,0,0,1,1.0715,3.679,7.3948,7.3948,0,0,1,4.5022.6534,8.27,8.27,0,0,1,6.5694.08,7.6061,7.6061,0,0,1,7.4828.041,6.6933,6.6933,0,0,1,9.9015.4293a9.3148,9.3148,0,0,1,1.5874.748,7.4546,7.4546,0,0,1,2.708,3.0265,7.3149,7.3149,0,0,1,.7393,2.5343l.0212.2268-.272-.0142c-.3336-.0175-.4538.0189-.6185.1876-.1211.1241-.1262.1378-.1262.3408,0,.21.0012.2125.1365.3262a1.4333,1.4333,0,0,0,.4164.2116c.3055.1057.3684.1776.2163.2469a.7751.7751,0,0,1-.5638-.1161c-.0953-.063-.1267-.0708-.1539-.0381a.6622.6622,0,0,0-.12.325.6384.6384,0,0,0,.2023.1325.855.855,0,0,0,.499.0915c.1876,0,.312.0128.3113.0321a7.0489,7.0489,0,0,1-.1845.8012A7.4466,7.4466,0,0,1,8.8449,14.843a9.16,9.16,0,0,1-2.3877.0614ZM1.8235,8.6873c.045-.0173.0507-.1561.0507-1.2339V6.2389H1.65V7.4728c0,1.195.002,1.2339.0615,1.2339A.3761.3761,0,0,0,1.8235,8.6873Zm1.6439-.1A1.0239,1.0239,0,0,0,3.7,8.4354l.0655-.07-.0817-.0768c-.0683-.0641-.0908-.07-.1364-.0371a.76.76,0,0,1-.7887.0938.4382.4382,0,0,1-.2525-.3289l-.007-.0952.6731-.016.673-.016.0111-.0962A1.0344,1.0344,0,0,0,3.83,7.5276a.6406.6406,0,0,0-.2034-.3446.5909.5909,0,0,0-.3677-.2253.7876.7876,0,0,0-.8147.2325,1.08,1.08,0,0,0-.2484.6259,1.5115,1.5115,0,0,0,.183.56,1.07,1.07,0,0,0,.4747.295.9649.9649,0,0,0,.6142-.0839Zm-.9843-.957A.4891.4891,0,0,1,2.73,7.275a.664.664,0,0,1,.5863-.0325.5219.5219,0,0,1,.2635.3431l.0089.0795-.5528.0088c-.4922.0078-.5529.003-.5529-.0432ZM5.02,8.6042a.46.46,0,0,0,.2515-.5373c-.0475-.1763-.2-.2908-.5451-.4093-.2978-.1023-.3851-.1621-.3841-.263.0017-.1825.3053-.2515.6163-.14.147.0527.1537.0524.1993-.0079.0824-.1089.059-.1732-.087-.2395a.8911.8911,0,0,0-.3718-.0625.5617.5617,0,0,0-.5219.1977.5109.5109,0,0,0-.0055.5021,1.4257,1.4257,0,0,0,.5707.3094c.2008.0671.2724.13.2724.24,0,.1318-.1027.2024-.3171.2179a.7754.7754,0,0,1-.5233-.16c-.0462-.0335-.0633-.03-.1039.0233-.0779.1016-.0444.18.1206.2809A.9146.9146,0,0,0,5.02,8.6042Zm2.9737-.0453a.84.84,0,0,0,.3729-.308,1.2813,1.2813,0,0,0,.1415-.2181.2916.2916,0,0,1,.0195-.0766c.0167-.0436-.0163-.0507-.2367-.0507-.2312,0-.2608.0071-.304.0731a.8231.8231,0,0,1-.1793.1641.3782.3782,0,0,1-.3289.0768.3454.3454,0,0,1-.3165-.1419.9543.9543,0,0,1-.2442-.6189,1.03,1.03,0,0,1,.2994-.535.5409.5409,0,0,1,.7145.0887.3865.3865,0,0,0,.3321.1456c.2593.0181.2961-.0081.2308-.1645a1.0534,1.0534,0,0,0-1.2208-.5841,1.0266,1.0266,0,0,0-.7414.6509.88.88,0,0,0-.0882.4606.8189.8189,0,0,0,.1035.4863.947.947,0,0,0,.4032.49.878.878,0,0,0,.5833.1747.76.76,0,0,0,.4593-.1132ZM11.3045,8.54A.8423.8423,0,0,0,11.59,8.236a.6283.6283,0,0,0,.1069-.4267.7084.7084,0,0,0-.0706-.3723.8247.8247,0,0,0-.7693-.493.6973.6973,0,0,0-.543.2027.8163.8163,0,0,0-.2823.652.693.693,0,0,0,.0923.4075.7341.7341,0,0,0,.3878.388.5734.5734,0,0,0,.388.0746.6075.6075,0,0,0,.4051-.1287Zm-.655-.4023a.42.42,0,0,1-.086-.5532.3368.3368,0,0,1,.3307-.1919c.1319,0,.2923.1653.3239.3337.0679.362-.34.6569-.5686.4114Zm2.4669.4872a.83.83,0,0,0,.3948-.383,1.6894,1.6894,0,0,0,.06-.6971l.0007-.5688h-.4807v.527c0,.5082-.0027.53-.076.6153a.2627.2627,0,0,1-.3929,0c-.0733-.0852-.076-.1071-.076-.6153v-.527h-.4857l.0105.6009c.0093.5286.0182.6149.0746.7173a.9114.9114,0,0,0,.3576.3325,1.02,1.02,0,0,0,.6129-.0018ZM9.3418,8.17a3.8438,3.8438,0,0,1,.0322-.5878c.036-.13.1321-.1894.3056-.1894H9.79V6.944l-.1843.0018a.66.66,0,0,0-.5037.1832c-.1935.1733-.2206.2751-.2351.8811a5.1215,5.1215,0,0,0,.0055.5849c.0137.0359.0739.0476.2436.0476h.2253l0-.4727Zm5.3421-.5744c-.2556-.0808-.3162-.1348-.2461-.2192.0506-.061.1693-.06.3784.0016.1638.0487.1661.0511.1661.1763,0,.07-.0109.1255-.0241.1237s-.1366-.0389-.2743-.0824Z" transform="translate(-0.0159 -0.0409)"/></g></g></svg>