<svg id="college" xmlns="http://www.w3.org/2000/svg" width="15" height="13" viewBox="0 0 15 13"><defs><style>.cls-1{fill:#fabc2a;}</style></defs><title>amphitheatresetsallesdexamen</title><path class="cls-1" d="M7.5,0,0,3.5l2,.9V6.1A1.48,1.48,0,0,0,2,8.9V9l-.9,2.1C.8,12,1,13,2.5,13s1.7-1,1.4-1.9L3,9A1.6375,1.6375,0,0,0,4,7.5,1.4122,1.4122,0,0,0,3,6.1V4.9L7.5,7,15,3.5Zm4.4,6.5-4.5,2L5,7.4v.1a2.5041,2.5041,0,0,1-.8,1.8l.6,1.4v.1A2.4622,2.4622,0,0,1,4.9,12a6.1751,6.1751,0,0,0,2.5.5c3.3,0,4.5-2,4.5-3v-3Z"/></svg>