<?xml version="1.0" encoding="utf-8"?>
<!-- Generator: Adobe Illustrator 24.0.0, SVG Export Plug-In . SVG Version: 6.00 Build 0)  -->
<svg version="1.1" id="Calque_1" xmlns="http://www.w3.org/2000/svg" xmlns:xlink="http://www.w3.org/1999/xlink" x="0px" y="0px"
	 viewBox="0 0 15 15" style="enable-background:new 0 0 15 15;" xml:space="preserve">
<style type="text/css">
	.st0{fill:#DDA35E;}
</style>
<title>accueilsetudiant</title>
<path class="st0" d="M7.5,0C3.4,0,0,3.4,0,7.5S3.4,15,7.5,15S15,11.6,15,7.5S11.6,0,7.5,0z M8.4,12.6c0,0.4-0.3,0.6-0.9,0.6
	S6.6,13,6.6,12.6V5.8c0-0.4,0.3-0.6,0.9-0.6s0.9,0.2,0.9,0.6V12.6z M8.4,3c0,0.4-0.3,0.6-0.9,0.6S6.6,3.4,6.6,3V2.4
	c0-0.4,0.3-0.6,0.9-0.6S8.4,2,8.4,2.4V3z"/>
</svg>
