<svg id="picnic-site" xmlns="http://www.w3.org/2000/svg" width="15" height="12.4908" viewBox="0 0 15 12.4908"><defs><style>.cls-1{fill:#e03c31;}</style></defs><title>tablesdepique-nique</title><path id="rect4760" class="cls-1" d="M3.125,1.2546a1.25,1.25,0,0,0,0,2.5H4.7461l-.8057,2.5H1.25a1.25,1.25,0,0,0,0,2.5H3.1372l-1.211,3.7622a.9377.9377,0,0,0,1.7831.5813l.0016-.005L5.1074,8.7546H9.8925L11.289,13.093a.9376.9376,0,0,0,1.7846-.5761h0L11.8628,8.7546H13.75a1.25,1.25,0,0,0,0-2.5H11.06l-.8057-2.5H11.875a1.25,1.25,0,0,0,0-2.5Zm3.5913,2.5H8.2837l.8057,2.5H5.9106Z" transform="translate(0 -1.2546)"/></svg>