<?xml version="1.0" encoding="utf-8"?>
<!-- Generator: Adobe Illustrator 24.0.0, SVG Export Plug-In . SVG Version: 6.00 Build 0)  -->
<svg version="1.1" id="toilet" xmlns="http://www.w3.org/2000/svg" xmlns:xlink="http://www.w3.org/1999/xlink" x="0px" y="0px"
	 viewBox="0 0 15.1 15" style="enable-background:new 0 0 15.1 15;" xml:space="preserve">
<style type="text/css">
	.st0{fill:#DDA35E;}
</style>
<title>toilettes</title>
<path class="st0" d="M4.6,3C3.7,3,3.1,2.3,3.1,1.5S3.7,0,4.6,0s1.5,0.7,1.5,1.5S5.4,3,4.6,3z M14.1,1.5c0-0.8-0.7-1.5-1.5-1.5
	s-1.5,0.7-1.5,1.5S11.7,3,12.6,3S14.1,2.3,14.1,1.5z M8.9,6.6L8.9,6.6L6.4,4.2l0,0C6.3,4,6.2,4,6.1,4h-3C2.9,4,2.8,4.1,2.7,4.1l0,0
	L0.2,6.6C0,6.8-0.1,7.1,0.1,7.4s0.5,0.3,0.7,0.1l0.1-0.1L3,5.2L1,11h2v3.3v0.1c0.1,0.3,0.3,0.5,0.6,0.4c0.2,0,0.4-0.2,0.4-0.4l0,0
	V11h1v3.5l0,0c0.1,0.3,0.3,0.5,0.6,0.4c0.2,0,0.4-0.2,0.4-0.4v-0.1V11h2L6,5.2l2.1,2.2l0,0c0.1,0.1,0.2,0.2,0.4,0.2
	C8.8,7.6,9,7.3,9,7.1C9.1,6.9,9,6.7,8.9,6.6z M14.6,4h-4c-0.3,0-0.5,0.2-0.5,0.5v5c0,0.3,0.2,0.5,0.5,0.5s0.5-0.2,0.5-0.5v5
	c0,0.3,0.2,0.5,0.5,0.5s0.5-0.2,0.5-0.5v-5h1v5c0,0.3,0.2,0.5,0.5,0.5s0.5-0.2,0.5-0.5v-5c0,0.3,0.2,0.5,0.5,0.5s0.5-0.2,0.5-0.5v-5
	C15.1,4.2,14.8,4,14.6,4z"/>
</svg>
