<?xml version="1.0" encoding="utf-8"?>
<!-- Generator: Adobe Illustrator 24.0.0, SVG Export Plug-In . SVG Version: 6.00 Build 0)  -->
<svg version="1.1" id="construction" xmlns="http://www.w3.org/2000/svg" xmlns:xlink="http://www.w3.org/1999/xlink" x="0px"
	 y="0px" viewBox="0 0 15 15" style="enable-background:new 0 0 15 15;" xml:space="preserve">
<style type="text/css">
	.st0{fill:#2B4794;}
</style>
<title>travaux</title>
<path class="st0" d="M14.4,12.7h-2.1l-4-12.1C8.2,0.2,7.7-0.1,7.2,0C7,0.1,6.8,0.3,6.7,0.6l-4,12.1H0.6c-0.3,0-0.6,0.2-0.6,0.5
	c0,0,0,0,0,0.1v1.2C0,14.7,0.2,15,0.5,15c0,0,0,0,0.1,0h13.8c0.3,0,0.6-0.2,0.6-0.5c0,0,0,0,0-0.1v-1.2C15,13,14.8,12.7,14.4,12.7
	C14.4,12.7,14.4,12.7,14.4,12.7z M6.9,3.5h1.2l0.8,2.3H6.2L6.9,3.5z M5.4,8.1h4.1l0.8,2.3H4.6L5.4,8.1z"/>
</svg>
