<?xml version="1.0" encoding="utf-8"?>
<!-- Generator: Adobe Illustrator 24.0.0, SVG Export Plug-In . SVG Version: 6.00 Build 0)  -->
<svg version="1.1"
	 id="svg11194" xmlns:cc="http://creativecommons.org/ns#" xmlns:dc="http://purl.org/dc/elements/1.1/" xmlns:inkscape="http://www.inkscape.org/namespaces/inkscape" xmlns:rdf="http://www.w3.org/1999/02/22-rdf-syntax-ns#" xmlns:sodipodi="http://sodipodi.sourceforge.net/DTD/sodipodi-0.dtd" xmlns:svg="http://www.w3.org/2000/svg"
	 xmlns="http://www.w3.org/2000/svg" xmlns:xlink="http://www.w3.org/1999/xlink" x="0px" y="0px" viewBox="0 0 15 15"
	 style="enable-background:new 0 0 15 15;" xml:space="preserve">
<style type="text/css">
	.st0{fill:#2B4794;}
</style>
<path id="layer1" inkscape:groupmode="layer" inkscape:label="Calque 1" class="st0" d="M9.7,8.3L9.7,8.3L11,3.8
	c-0.2-0.2-0.6-0.3-0.8-0.4c-0.1,0-0.2,0-0.3,0c-0.2,0-0.4,0-0.5,0.1l0,0l0,0l-1.9,6.9l0,0l0,0L5.6,3.5C5.4,3.4,5.1,3.4,4.8,3.4l0,0
	C4.6,3.4,4.2,3.6,4,3.8l2.3,8C6.6,12,7,12.1,7.4,12.1h0.1h0.1c0.4,0,0.8-0.1,1.1-0.3L9.7,8.3z M15,7.5c0,4.1-3.4,7.5-7.5,7.5
	S0,11.6,0,7.5S3.4,0,7.5,0S15,3.4,15,7.5"/>
</svg>
