<?xml version="1.0" encoding="UTF-8" standalone="no"?>
<svg
   xmlns:dc="http://purl.org/dc/elements/1.1/"
   xmlns:cc="http://creativecommons.org/ns#"
   xmlns:rdf="http://www.w3.org/1999/02/22-rdf-syntax-ns#"
   xmlns:svg="http://www.w3.org/2000/svg"
   xmlns="http://www.w3.org/2000/svg"
   xmlns:sodipodi="http://sodipodi.sourceforge.net/DTD/sodipodi-0.dtd"
   xmlns:inkscape="http://www.inkscape.org/namespaces/inkscape"
   version="1.0"
   width="945pt"
   height="944pt"
   viewBox="0 0 945 944"
   preserveAspectRatio="xMidYMid meet"
   id="svg16"
   sodipodi:docname="CartoucheHaut_Rouge.svg"
   inkscape:version="1.0.1 (3bc2e813f5, 2020-09-07)">
  <metadata
     id="metadata22">
    <rdf:RDF>
      <cc:Work
         rdf:about="">
        <dc:format>image/svg+xml</dc:format>
        <dc:type
           rdf:resource="http://purl.org/dc/dcmitype/StillImage" />
      </cc:Work>
    </rdf:RDF>
  </metadata>
  <defs
     id="defs20" />
  <sodipodi:namedview
     pagecolor="#ffffff"
     bordercolor="#666666"
     borderopacity="1"
     objecttolerance="10"
     gridtolerance="10"
     guidetolerance="10"
     inkscape:pageopacity="0"
     inkscape:pageshadow="2"
     inkscape:window-width="1920"
     inkscape:window-height="1017"
     id="namedview18"
     showgrid="false"
     inkscape:zoom="0.45671791"
     inkscape:cx="481.03853"
     inkscape:cy="563.1814"
     inkscape:window-x="-8"
     inkscape:window-y="-8"
     inkscape:window-maximized="1"
     inkscape:current-layer="svg16" />
  <rect
     style="fill:#ffffff;fill-opacity:1;stroke-width:0.597377"
     id="rect847"
     width="796.36938"
     height="622.43298"
     x="74.315292"
     y="102.18353" />
  <g
     transform="matrix(0.1,0,0,-0.1,0.58059235,945.1612)"
     fill="#000000"
     stroke="none"
     id="g14"
     style="fill:#e03c31;fill-opacity:1">
    <path
       d="m -5.8059235,4731.612 c 0,-2623 4,-4720 9,-4720 12.0000005,0 9358.0000235,1159 9404.0000235,1166 l 37,6 v 4134 4134 h -4725 H -5.8059235 Z m 6678.0000235,182 c 20,-10 49,-26 63,-35 25,-17 26,-17 38,9 13,30 11,30 89,-40 28,-27 32,-28 32,-10 0,10 9,25 21,32 18,12 26,8 71,-30 109,-91 164,-183 197,-328 31,-136 37,-211 19,-248 -20,-39 -15,-49 120,-275 162,-271 247,-361 336,-362 156,0 104,303 -90,526 -36,41 -67,82 -70,91 -4,10 -14,20 -25,23 -23,8 -109,103 -109,121 0,8 -8,22 -19,33 -31,31 -61,126 -61,192 0,55 3,63 33,93 17,18 47,51 65,74 61,77 163,112 265,92 100,-19 291,-124 285,-156 -2,-11 11,-24 35,-36 20,-11 37,-24 37,-29 0,-4 -27,6 -60,23 -33,18 -57,34 -55,37 7,6 -45,36 -79,45 -23,6 -27,4 -23,-8 9,-22 2,-20 -48,14 -36,25 -53,30 -102,30 -65,0 -105,-8 -98,-20 3,-4 -8,-10 -24,-13 -57,-12 -92,-122 -65,-201 8,-21 14,-51 14,-67 0,-24 4,-28 33,-31 20,-2 32,-8 32,-18 0,-8 18,-22 40,-30 27,-11 41,-22 43,-37 4,-30 21,-41 72,-49 57,-9 49,3 -45,62 -78,49 -91,65 -34,41 61,-26 134,-89 180,-153 24,-35 78,-94 119,-132 89,-81 133,-155 155,-261 37,-179 3,-350 -93,-461 -72,-85 -210,-150 -318,-150 -141,0 -321,80 -433,191 -56,56 -229,288 -265,356 -16,28 -72,110 -126,181 -80,107 -99,139 -105,177 -9,66 -13,74 -47,91 -33,17 -79,11 -98,-12 -10,-11 -8,-16 11,-23 19,-8 12,-10 -37,-10 -34,-1 -81,-8 -105,-17 -24,-8 -67,-14 -96,-13 -50,3 -53,1 -105,-52 -108,-109 -254,-156 -325,-103 -72,54 -94,178 -53,304 39,121 177,315 295,413 l 45,38 v -35 c 0,-51 8,-65 51,-87 39,-20 40,-20 104,0 35,11 98,23 140,27 71,6 76,8 71,28 l -5,21 17,-21 c 14,-16 34,-23 92,-28 41,-4 98,-13 126,-21 107,-31 226,-146 318,-309 l 46,-81 v 40 c 0,70 -38,227 -71,293 -17,35 -57,91 -90,125 -55,58 -58,60 -59,35 0,-14 -3,-33 -6,-42 -9,-24 -43,-19 -53,7 -5,12 -21,33 -35,46 l -26,24 v -24 c 0,-14 -5,-30 -11,-36 -14,-14 -39,-6 -39,12 0,23 -86,100 -130,118 l -43,17 21,-23 c 52,-55 48,-126 -4,-74 -15,15 -43,31 -63,37 -37,10 -148,13 -121,3 8,-3 18,-12 23,-19 4,-7 13,-11 20,-8 7,2 17,-4 24,-15 11,-18 11,-18 -38,0 -27,11 -58,19 -69,19 -28,0 -26,37 2,46 31,9 146,6 168,-6 31,-16 35,-11 11,13 -47,51 18,77 97,39 z m 822,-21 c 0,-6 -4,-12 -9,-15 -13,-8 -42,4 -35,15 7,12 44,12 44,0 z m -96,-26 c -4,-8 -12,-15 -19,-15 -7,0 -18,-7 -25,-15 -7,-9 -15,-13 -19,-10 -5,6 48,54 61,55 4,0 5,-7 2,-15 z m 610,-184 c -2,-3 -12,3 -22,13 -16,17 -16,18 5,5 12,-7 20,-15 17,-18 z m 66,-61 c 7,-13 7,-20 1,-20 -6,0 -15,9 -21,20 -7,13 -7,20 -1,20 6,0 15,-9 21,-20 z m -1487,-491 c 109,-43 184,-109 270,-239 40,-59 46,-80 22,-80 -21,0 -19,-9 11,-37 14,-13 23,-27 20,-31 -4,-3 -23,11 -44,31 -31,31 -34,39 -22,47 9,6 10,10 3,10 -6,0 -24,13 -40,28 -15,16 -34,27 -40,25 -7,-3 -23,7 -36,21 -14,14 -28,26 -33,26 -5,0 -34,13 -65,29 -30,17 -78,33 -106,37 -50,6 -52,5 -67,-24 -8,-16 -22,-32 -31,-35 -8,-4 -15,-14 -15,-23 0,-10 5,-14 15,-10 8,3 14,0 12,-7 -1,-8 19,-13 67,-14 78,-2 166,-28 166,-48 0,-7 8,-16 18,-18 11,-3 9,-5 -8,-6 -14,0 -31,3 -38,8 -13,8 -149,-10 -183,-24 -22,-8 -41,-51 -44,-99 -4,-46 -16,-60 -43,-52 -25,8 -43,51 -40,93 1,18 -5,40 -14,50 -38,43 -51,85 -44,142 13,106 67,187 146,220 32,13 100,5 163,-20 z m -1884,-46 c -51,-68 -92,-96 -111,-77 -4,3 6,25 20,49 24,40 31,44 66,45 35,0 37,-2 25,-17 z m -980,-125 c 25,-15 41,-50 41,-88 0,-26 -4,-30 -29,-30 -23,0 -30,5 -36,27 -10,40 -24,53 -56,53 -33,0 -69,-31 -69,-58 0,-23 43,-64 95,-90 86,-43 119,-104 95,-177 -16,-49 -60,-75 -128,-75 -88,0 -132,37 -132,110 0,27 3,30 30,30 25,0 30,-4 30,-24 0,-36 46,-69 85,-62 36,7 55,30 55,67 0,31 -33,61 -107,98 -56,28 -83,65 -83,113 0,65 25,98 90,122 22,8 97,-2 119,-16 z m -2487,-169 c 3,-176 4,-181 27,-200 31,-25 77,-24 99,1 14,17 18,49 22,198 l 5,177 33,3 32,3 v -163 c 0,-185 -8,-226 -51,-262 -25,-21 -41,-26 -85,-26 -30,0 -69,7 -85,16 -51,26 -59,62 -59,259 v 175 h 29 29 z m 544,6 79,-174 3,174 2,175 h 30 30 l -2,-222 -3,-223 h -40 -40 l -82,180 -83,180 v -183 -183 l -27,3 -28,3 -3,223 -2,222 h 43 44 z m 374,-50 v -225 h -30 -30 v 225 225 h 30 30 z m 206,198 c 4,-16 26,-99 48,-186 l 42,-158 48,185 49,186 h 34 c 28,0 33,-3 29,-17 -3,-10 -24,-81 -46,-158 -23,-77 -50,-171 -61,-208 l -20,-68 -36,3 -36,3 -58,200 c -32,110 -61,210 -64,223 -5,20 -2,22 30,22 29,0 36,-4 41,-27 z m 604,-3 v -30 h -85 -85 v -65 -65 h 81 80 l -3,-27 c -3,-28 -4,-28 -80,-31 l -78,-3 v -69 -70 h 91 90 l -3,-27 -3,-28 -117,-3 -118,-3 v 226 225 h 115 115 z m 350,15 c 38,-20 50,-43 50,-100 0,-38 -5,-52 -27,-73 l -28,-27 22,-21 c 16,-16 23,-39 28,-90 3,-38 9,-81 11,-96 5,-26 3,-28 -25,-28 -16,0 -33,6 -38,13 -4,6 -10,47 -14,90 -6,89 -13,97 -76,97 h -42 l -3,-97 -3,-98 -32,-3 -33,-3 v 225 226 h 90 c 62,0 100,-5 120,-15 z m 675,-210 v -220 h -30 -30 l -3,223 -2,223 32,-3 33,-3 z m 425,195 v -30 h -60 -60 v -195 -195 h -30 -30 v 195 195 h -55 c -57,0 -74,12 -61,45 4,12 31,15 151,15 h 145 z m 350,0 v -30 h -85 -85 v -65 -65 h 81 80 l -3,-27 c -3,-28 -4,-28 -80,-31 l -78,-3 v -69 -70 h 85 85 v -30 -30 h -115 -115 v 225 225 h 115 115 z m 557,10 c 55,-33 67,-70 67,-200 0,-183 -27,-216 -189,-227 l -85,-6 v 227 226 h 88 c 69,0 94,-4 119,-20 z m 463,-10 v -30 h -85 -85 v -65 -65 h 81 80 l -3,-27 c -3,-28 -4,-28 -80,-31 l -78,-3 v -69 -70 h 85 85 v -30 -30 h -115 -115 v 225 225 h 115 115 z m 960,-130 c 0,-5 -2,-10 -4,-10 -3,0 -8,5 -11,10 -3,6 -1,10 4,10 6,0 11,-4 11,-10 z m 200,-35 c 0,-5 -5,-3 -10,5 -5,8 -10,20 -10,25 0,6 5,3 10,-5 5,-8 10,-19 10,-25 z m 20,-76 c 0,-11 -4,-17 -10,-14 -5,3 -10,15 -10,26 0,11 5,17 10,14 6,-3 10,-15 10,-26 z m 1300,-754 v -575 h -155 -155 v 405 c 0,223 -1,405 -2,405 -2,0 -43,-20 -93,-45 -49,-25 -94,-45 -101,-45 -17,0 -38,64 -23,69 49,16 184,93 249,142 75,57 210,192 210,210 0,5 16,9 35,9 h 35 z m -1169,405 c 107,-36 109,-39 109,-137 v -85 l -32,24 c -87,66 -196,93 -271,69 -46,-16 -87,-63 -87,-102 0,-67 31,-98 190,-191 121,-72 168,-113 205,-179 27,-48 30,-63 30,-139 0,-96 -18,-140 -77,-197 -101,-97 -300,-103 -440,-14 l -48,31 v 96 97 l 55,-52 c 70,-66 132,-94 210,-95 73,-1 121,23 149,76 18,31 18,40 8,77 -17,55 -61,96 -183,172 -189,118 -239,181 -239,301 0,75 17,122 61,173 77,88 228,119 360,75 z m -4605,-17 c 76,-30 120,-68 151,-131 36,-74 39,-184 6,-247 -24,-47 -66,-91 -104,-111 l -27,-14 56,-59 c 32,-32 81,-99 111,-147 30,-49 80,-125 111,-169 31,-44 59,-86 64,-92 5,-10 -14,-13 -83,-13 h -91 l -67,106 c -168,262 -230,324 -330,324 h -53 v -215 -215 h -75 -75 v 506 506 l 178,-4 c 147,-4 186,-8 228,-25 z m 1054,-43 v -70 h -215 -215 v -145 -145 h 205 205 v -70 -70 h -205 -205 v -150 -150 h 220 220 v -70 -70 h -295 -295 v 505 505 h 290 290 z m 605,-310 330,-379 5,377 5,377 73,3 72,3 v -506 -505 h -67 -68 l -325,375 -325,375 -3,-375 -2,-375 h -75 -75 v 505 505 l 63,-1 h 62 z m 1146,-2 334,-382 3,382 2,382 h 70 70 v -505 -505 h -65 -64 l -331,380 -330,381 v -381 -380 h -70 -70 v 505 505 h 58 58 z m 1269,312 v -70 h -210 -210 v -145 -145 l 203,-2 202,-3 3,-67 3,-68 h -206 -205 v -150 -150 h 215 215 v -70 -70 h -295 -295 v 498 c 0,274 3,502 7,505 3,4 134,7 290,7 h 283 z"
       id="path2"
       style="fill:#e03c31;fill-opacity:1" />
    <path
       d="m 7318,4644 c -5,-4 -8,-16 -8,-28 0,-14 3,-17 11,-9 6,6 9,19 7,28 -1,9 -6,13 -10,9 z"
       id="path4"
       style="fill:#e03c31;fill-opacity:1" />
    <path
       d="m 7637,4099 c 4,-13 8,-18 11,-10 2,7 -1,18 -6,23 -8,8 -9,4 -5,-13 z"
       id="path6"
       style="fill:#e03c31;fill-opacity:1" />
    <path
       d="m 3180,3835 v -65 h 41 c 22,0 49,4 59,10 27,14 35,65 16,95 -14,21 -24,25 -66,25 h -50 z"
       id="path8"
       style="fill:#e03c31;fill-opacity:1" />
    <path
       d="m 5180,3734 v -167 l 52,5 c 41,4 57,11 76,33 22,27 23,34 20,140 -4,140 -13,155 -95,155 h -53 z"
       id="path10"
       style="fill:#e03c31;fill-opacity:1" />
    <path
       d="m 2240,3059 v -151 l 88,4 c 64,3 98,9 123,24 64,37 87,127 52,201 -24,51 -77,73 -180,73 h -83 z"
       id="path12"
       style="fill:#e03c31;fill-opacity:1" />
  </g>
</svg>
