<svg id="Calque_1" data-name="Calque 1" xmlns="http://www.w3.org/2000/svg" width="15" height="15" viewBox="0 0 15 15"><defs><style>.cls-1{fill:#332823;}</style></defs><title>layers</title><path class="cls-1" d="M14.7278,10.1057l-1.114-.6684L8.5429,12.48a2.1478,2.1478,0,0,1-2.0858,0L1.3862,9.4373l-1.114.6684a.4216.4216,0,0,0,0,.7885l6.5707,3.9425a1.4037,1.4037,0,0,0,1.3142,0l6.5707-3.9425A.4216.4216,0,0,0,14.7278,10.1057Z" transform="translate(0 0)"/><path class="cls-1" d="M14.7278,7.1058l-1.114-.6685L8.5429,9.48a2.1478,2.1478,0,0,1-2.0858,0L1.3862,6.4373l-1.114.6685a.4216.4216,0,0,0,0,.7884l6.5707,3.9425a1.4037,1.4037,0,0,0,1.3142,0l6.5707-3.9425A.4216.4216,0,0,0,14.7278,7.1058Z" transform="translate(0 0)"/><path class="cls-1" d="M7.5.75a.5856.5856,0,0,1,.2712.0564L13.927,4.5,7.7712,8.1936a.68.68,0,0,1-.5424,0L1.073,4.5,7.2288.8064A.5856.5856,0,0,1,7.5.75M7.5,0a1.3035,1.3035,0,0,0-.6571.1633L.2722,4.1058a.4216.4216,0,0,0,0,.7885L6.8429,8.8367a1.4037,1.4037,0,0,0,1.3142,0l6.5707-3.9424a.4216.4216,0,0,0,0-.7885L8.1571.1633A1.3035,1.3035,0,0,0,7.5,0Z" transform="translate(0 0)"/></svg>