<svg id="Calque_1" data-name="Calque 1" xmlns="http://www.w3.org/2000/svg" width="15" height="15" viewBox="0 0 15 15"><defs><style>.cls-1{fill:#332823;}</style></defs><title>narrow</title><path class="cls-1" d="M7.96.94h0m-.46.93,5.591,11.3029L8.0123,10.8914a1.25,1.25,0,0,0-1.0246,0L1.909,13.1731,7.5,1.87M7.5,0a.73.73,0,0,0-.66.3853L.0621,14.0875a.6027.6027,0,0,0,.1613.7327A.7672.7672,0,0,0,.7227,15a.7873.7873,0,0,0,.3225-.0685l6.4548-2.9,6.4548,2.9a.7876.7876,0,0,0,.323.0684.766.766,0,0,0,.4988-.18.6025.6025,0,0,0,.1612-.7327L8.16.3853A.73.73,0,0,0,7.5,0Z" transform="translate(0 0)"/></svg>